# xmcd
#
# Track frame offsets:
#	150
#	100467
#	203040
#	318162
#
# Disc length: 4389 seconds
#
# Revision: 1
# Processed by: cddbd v1.5.1PL0 Copyright (c) Steve Scherf et al.
# Submitted via: CDex 1.50Beta5
#
DISCID=2e112304
DTITLE=吉田直 - Trinity Blood R.A.M. Mission3
DYEAR=2002
DGENRE=Soundtrack
TTITLE0=騎士団
TTITLE1=魔術師
TTITLE2=帝国
TTITLE3=聖なる合唱〜終局〜
EXTD=
EXTT0=
EXTT1=
EXTT2=
EXTT3=
PLAYORDER=
